<mxfile host="app.diagrams.net" modified="2023-11-28T00:28:20.809Z" agent="Mozilla/5.0 (Windows NT 10.0; Win64; x64) AppleWebKit/537.36 (KHTML, like Gecko) Chrome/119.0.0.0 Safari/537.36" etag="sWHXx2TwrKg0xDUgm2WX" version="22.1.4" type="github">
  <diagram name="Página-1" id="0Luo2vFcLnRhDhoHYvkw">
    <mxGraphModel dx="1311" dy="718" grid="1" gridSize="10" guides="1" tooltips="1" connect="1" arrows="1" fold="1" page="1" pageScale="1" pageWidth="827" pageHeight="1169" math="0" shadow="0">
      <root>
        <mxCell id="0" />
        <mxCell id="1" parent="0" />
        <mxCell id="k9_f0golqo-L15wdCdRA-1" value="COMO FUNCIONA A METODOLOGIA SCRUM NA GETNET&lt;br&gt;SCRUM/KANBAN" style="text;html=1;align=center;verticalAlign=middle;resizable=0;points=[];autosize=1;strokeColor=none;fillColor=none;" vertex="1" parent="1">
          <mxGeometry x="220" y="30" width="350" height="40" as="geometry" />
        </mxCell>
        <mxCell id="k9_f0golqo-L15wdCdRA-13" style="edgeStyle=orthogonalEdgeStyle;rounded=0;orthogonalLoop=1;jettySize=auto;html=1;exitX=1;exitY=0.5;exitDx=0;exitDy=0;entryX=0;entryY=0.5;entryDx=0;entryDy=0;" edge="1" parent="1" source="k9_f0golqo-L15wdCdRA-2" target="k9_f0golqo-L15wdCdRA-4">
          <mxGeometry relative="1" as="geometry" />
        </mxCell>
        <mxCell id="k9_f0golqo-L15wdCdRA-2" value="RETROSPECTIVA" style="rounded=0;whiteSpace=wrap;html=1;fillColor=#dae8fc;strokeColor=#6c8ebf;" vertex="1" parent="1">
          <mxGeometry x="110" y="110" width="120" height="60" as="geometry" />
        </mxCell>
        <mxCell id="k9_f0golqo-L15wdCdRA-4" value="PLANNING" style="rounded=0;whiteSpace=wrap;html=1;fillColor=#dae8fc;strokeColor=#6c8ebf;" vertex="1" parent="1">
          <mxGeometry x="480" y="110" width="120" height="60" as="geometry" />
        </mxCell>
        <mxCell id="k9_f0golqo-L15wdCdRA-6" value="&lt;ul style=&quot;border-color: var(--border-color); text-align: left;&quot;&gt;&lt;li style=&quot;border-color: var(--border-color);&quot;&gt;Nessa etapa é feita o mapeamento das próximas atividades que entraram na Sprint na semana atual.&lt;/li&gt;&lt;li style=&quot;border-color: var(--border-color);&quot;&gt;È realizada essa etapa com o Jira para pegar as atividades que estão em backlog ou continuar com a solicitações que ficaram da spinrt passada.&lt;/li&gt;&lt;li style=&quot;border-color: var(--border-color);&quot;&gt;A Getnet(minha equipe) trabalha com &lt;b&gt;solicitações&lt;/b&gt;, que foram criadas a partir de uma necessidade de uma área de Negocio.&lt;br style=&quot;border-color: var(--border-color); text-align: center;&quot;&gt;&lt;span style=&quot;text-align: center;&quot;&gt;Na Planning é criada as &lt;b&gt;tarefas &lt;/b&gt;que estão vinculadas na &lt;b&gt;solicitação&lt;/b&gt;&lt;/span&gt;&lt;/li&gt;&lt;li style=&quot;border-color: var(--border-color);&quot;&gt;&lt;span style=&quot;text-align: center;&quot;&gt;&lt;b&gt;É realizado a revisão das tarefas que vão entrar na Sprint Atual(Scrum Master)&lt;/b&gt;&lt;/span&gt;&lt;/li&gt;&lt;/ul&gt;" style="rounded=0;whiteSpace=wrap;html=1;" vertex="1" parent="1">
          <mxGeometry x="560" y="180" width="430" height="150" as="geometry" />
        </mxCell>
        <mxCell id="k9_f0golqo-L15wdCdRA-7" value="&lt;ul style=&quot;border-color: var(--border-color); text-align: left;&quot;&gt;&lt;li style=&quot;border-color: var(--border-color);&quot;&gt;Aqui o Scrum Master realiza uma conversa/analise sobre a&amp;nbsp;&lt;b style=&quot;border-color: var(--border-color); background-color: initial;&quot;&gt;sprint&amp;nbsp;&lt;/b&gt;passada.&lt;/li&gt;&lt;li style=&quot;border-color: var(--border-color);&quot;&gt;Verificando o que foi de bom ou ruim na sprint sobre o time.&lt;/li&gt;&lt;li style=&quot;border-color: var(--border-color);&quot;&gt;Analisando as entregas e rendimentos do time.&lt;/li&gt;&lt;li style=&quot;border-color: var(--border-color);&quot;&gt;Avisos importantes da semana&lt;/li&gt;&lt;/ul&gt;" style="rounded=0;whiteSpace=wrap;html=1;" vertex="1" parent="1">
          <mxGeometry x="110" y="190" width="340" height="140" as="geometry" />
        </mxCell>
        <mxCell id="k9_f0golqo-L15wdCdRA-8" value="" style="shape=image;verticalLabelPosition=bottom;labelBackgroundColor=default;verticalAlign=top;aspect=fixed;imageAspect=0;image=data:image/png,iVBORw0KGgoAAAANSUhEUgAAAtIAAAG9CAYAAAA4IJG4AAAAAXNSR0IArs4c6QAAAARnQU1BAACxjwv8YQUAAAAJcEhZcwAADsMAAA7DAcdvqGQAAFiISURBVHhe7d0FgBRXusXxg7sEdx3c3d3dneDuEjS4u/vgTHC3wZ3B3WVwD54QQbe7udmEBGek5f/bV+n6zi3ywua95FBU3wrwxkIAAAAAvkhA8wkAAADgC9juSK8fO0Mn547SH+GymhgAAP/x5vVLvX794u3x5uXb2fL52vL55vUrvbGev7F+/nW8tn1aFt+eW/5jObH88bX5fPsbr4kDXtSvAQLoVrCQtjmA5dx6yPo/Ad+eBwwY8O15oLfnAa2fgayf5ggcyHK8PQfguiwFWsFv3npbpJePWKgzHr0VNH1rswwAwNd7+eq5nv/5i54//9V2/Pn8mV5YjxfP9NxyvHj+u+38xUvr5+96aTlevPxDLy1HgAABFSRwcAUKHEyBAgVVYMsRKNDb80CBglhKbBAFCmj5DBjYclhnS7kNENhSgK2fgSyfljJs+XNYKvDbc2tTtkj0cLEeBwqlBwniWgq2LGXcUrFfv7YUdMvnK8un5XhlO17q1ctXevXCclg+Xz5/aflrfPH287nl809rqX+tIMGDKGiwoAoaPKiChQj29xEyuIKHCqbgtk/LETq4AgcObPtrAOA8gq1Y8rZIr5y4UUdmDlW1ORvMEgAA/3Xv3i3dvXvT9vnzz7ctn7d1//4dc9zVgwf3bIe1qX73XWRFiBBJ4cNHspxHVLhwES3nESyf3ylsWOsRXmHCWI9wCh3aeoS1HGEspTPI2/9lPmxZ9dj6I0ZqNZoz1SRf7/nz53ry+IkePXqkRw8f6eGDh3pw/4Ht+Pnez7bj3t17unvnru7cvqMQIUIoeszoihEzhmLGiqlYcWIpduzYih03tuLGi6sIESOYPzMAR7G8YAyKNADgrV9+eaybN6/ajlu3rur27WuW47rtuHPnhqVA31DEiFEVNWoMRYkSQ5EjWz+jK1KkaJYjqu0zYsQotiNkyNDmz2o/fLJIfylr0b5967Zu3rhpO25cv6Hr167r+tXrunrlqiz/Kla8+PEUP2F8JUiYQAndEiphooRyS+xm+e/y7aMoAOwLRRoAXMytW9d07dpFy+FtO65fv6QbNy7bjpcvXyhmzLiKEeOvI46iR4+taNH+OmIqUCDHfUTBP4v0p1jval++dNl2XLp4yXZcvHBRF89fVLTo0ZQ4aWIlSZpESZInUbLkyZQsRbK3z3cD8DcUaQBwQk+fPtbly2d16dI5y+c5Xbly3nJcsB3WRyzixHGzHAltR+zYCRQrVnzbESFCZPNncE72XKQ/5pL3JZ0/e17nzpzT2TNndebUGXlf8FaKVClsR8rUKZUqdSqlSptKwYIFMz8KgG+jSAOAA7MW5gsXTuniRetxWt7e1uOMfvnliRIkSKr48ZOYI7HixUusuHETKWTIUOZHux5HLdLv8+eff+r0idM6eeKkTh4/qRPHTuj40eO2Yp0mXRqlzZBW6TKks929BuA7KNIA4CCsBfns2WM6f/6Ezp07bvk8qUeP7itRopSWI4Xc3JLbjoQJk9key8B/OVORfp9Xr17p2JFjtuPIoSO24/69+0qfKb0yZs5oOzJlzaTgwYObHwHgW1CkAcDOWP6RrNOnD1uOI7bjzJmjlgJ9VFGixFTSpKmVJElqJU6cyvKZyvaIBj6fsxfp97n/830dOnBIB/cf1MF9B3Vg3wFbsc6SLYuyZs9qO0KFdt3fpQC+BUUaAPyZ9Q7ziRMHdfLkQZ06dcjyech2Zzl58nS2I1mytJYCnda2RRy+jSsW6X+z7oe9f+9+7fPap71ee7V3916ly5hO2XNmV45cOZQjdw6+xAh8Joo0APgh677Lx47t0/Hj+/9/RI0aUylTZjRHBqVIkUHBg4cwPwI+iSL9X9bHQbx2eclrp5d279hte946Z56cypU3l3Lny23bKQTA+1GkAcAXWR/JOHJkj44etR579fjxQ6VJk0WpU2f+/xE+fERzNXwbRfrTHj9+rF3bdmnHth3asXWHAgUOpLz58ypfwXy2I1CgQOZKABRpAPAhln+U6tChXTp8eLflc7elQO+2vaAkXbpsSpv27WH9UiD8D0X6y50+eVrbNm/T1s1bbc9Y5y+UXwUKF1DBIgUVJWoUcxXgmijSAPCVXr9+rQMHtluOnTp4cIetRCdNmkbp0+dQhgw5LZ/ZbUUa9oMi/W0eP3qszRs2245N6zfZ9q0uXKyw7YifIL65CnAdFGkA+ALWu83792/Tvn3WAr3d9jxzpky5lTFjLtsROnRYcyXsEUXaZ1nL9AbPDVq/dr1ix4mtoiWLqljJYrbXmwOugCINAB9hfdnJ3r1b/n/EjeumLFnyKXPmPLYjVCiKsyOhSPse6zPV61avk+dqT8WKHUslSpdQiTIlbAUbcFYUaQD4hydPHmr37k3y8tqoPXs227YBy5atgLJmzW858ilixKjmSjgiirTf2LZlm9asWGM7UqVJpVLlSql0udIKG45feMK5WIt0QHMOAC7JugXdhAn9VKNGbuXKFVOrVnnYXnYyefJqbdrkrb59p6hEiaqUaOAzWXf5GDp6qE5fOa3aDWpr145dSho3qZrWa2p7DARwJtyRBuBSfv/9mXbs8LQc67Rz53qFDRteOXMWth05chTmZRROjDvS/ufp06dasWSFli9ersuXLqtcpXKqULmCkqdMbq4AHA93pAG4hOvXL8nDY5waNiyutGlDa/Hi6bYdNmbP3qzVq0+oc+fhliJdhBIN+JKwYcPq+7rfa8maJZq3bJ4CBw6s2lVrq0KJCpo3Z57tjYuAI6JIA3BKp04d1rhxvVWxYmZVqZJNp08ftpzX09Gjz+Tuvlbff99S8eIlNlcD8CvWtyV26dFFB04eUMNmDW27f6SIn0LdOnbT8aPHzVWAY6BIA3AaBw/u1ODBHVS0aBK1b19dz579og4dhsjL664GDJiuIkUqKkSIkOZqAP6taImimuYxTVu8tihCxAhqWKuhKpWqpCULl5grAPtGkQbg0Pbs2aJ+/Vopb9646t+/tUKGDKXhw+dp3bqz6tRpmLJkyWuuBGCvYsWJpXad2mnf8X2qXb+2li5cqvTJ02vYwGG6feu2uQqwPxRpAA7Huqdz374tlTt3LI0Y0UWRI0fT1KmeWrbssFq27KUUKdKbKwE4mpJlS+qnxT9pzoI5evTwkbKlzaY2zdro4P6D5grAflCkATgE61sFBw5sZ7vzPHRoJ0WJEkMzZ27SokX71LhxV7m58e1/wJmkSJVC/Yf21wnvE7bnqls1aaUqZatozco15grA/1GkAdits2ePadSobipaNKl69myqMGHCyd19jZYsOWApz12UIEFScyUAZxUmTBg1bdVUXoe9VLVGVU2dOFUFshfQ7OmzzRWA/6FIA7Ard+5c1/Tpw1WpUhY1a1ZWL14819Chc7Rq1XG1aNFTiRKlNFcCcDXW/aeXeS5TrwG9tH3LdqVPll5jR47Vs2fPzBWA36JIA/B3L1++1IoVc9SoUQkVL55Cly6dVdu2/bRly2XbrhupUmUyVwKAlCtvLttuHzPnz9Sli5eULkk6De47WPd/vm+uAPwGRRqAv9m3b5u6d2+kTJm+k6fnIpUqVUMHDz5Wv37uyp69kLkKAN4vdZrUGjl+pNZtX2d7e2K6pOnUp3sfdvqAn6FIA/BTt25d0+TJA1SiRAoNHNhWceMmspToM5o0aaWlSFdXwID8YwnAl0mQMIHti4n7ju3Tm9dvlDFFRvXq2ku3b1Ko4bv4NxYAP7F+/RLbM88lS6bU7ds31LfvFC1ffkQNGnRQtGixzFUA8PVixIqhnv176vCZwwoYKKAypsyo3t16697de+YKwGdRpAH4msuXz2nkyB+VJ09szZ07QQULltX+/Q/Vq9cEpU+fw1wFAD4rarSo6tG3hw6dPmS7Q50heQYN7DNQT548MVcAPoMiDcDHrVu3SI0alVS1arn0/PmfmjJljWbN2qzy5esocODA5ioA8F3Rokez7fDhdcRLT588VaYUmTR62Gi9evXKXAF8G4o0AB9hffZ57NheypcvrubNm6QSJapo7957ttd0J0mS2lwFAH4vdpzYGjh8oFZvWi3vi97KlDKTZrjPMKvA16NIA/gmu3dvVNu2VVW8eHI9fvxQ48cvt919LlPme3MFANiHxEkTa8ykMXKf5a5tm7epQI4CWrF0hVkFvhxFGsAXe/nyhebOnajy5TNo2LBOypgxl/btu6/u3ccoefJ05ioAsE8ZMmfQrPmz1Ll7Z7lPcFfVslW1d/deswp8Poo0gM929eoFDRnSUVmzRrEU561q126gli07rBo1mitYsODmKgBwDIWKFrI97lGqXCm1bNxSbZu11bWr18wq8GkUaQCftHfvFrVtW0UVKmRWgADSkiX7NXr0QuXMWdhcAQCOq0btGtp7bK9t+7xsabNpxOARZgX4OIo0gA9ascJD1arlVP/+rZUhQy7t2XPP9spu60tUAMCZBAoUSB26dpDXYS9dvnRZOdLn0LJFy8wq8H4UaQDv+P33Z5o2bZgKFkyolSvnqF699lq16oRq1myhIEGCmKsAwDnFjR9XYyePtb0pceqkqapVpZZOnjhpVoF3UaQB2Fi3r7N+cTB79mg6d+645dzDUqjXq1ChcuYKAHAdeQvk1ZrNa5Qrby6VK1pOA3oP0OvXr80q8BZFGnBxZ88eU7duDVWkSGLbbhwrVhzVkCGzlTZtNnMFALiuhk0batehXbr/833lzJBTq5atMisARRpwWQcP7lSbNpVVv34RxYgRV7t331bnziMUJ05CcwUAwMr6yvER40ao35B+GjNijJrWa6rr166bVbgyijTgYnbuXKeGDYura9d6ypAhp3btuq1mzbopbNjvzBUAgPfJXyi/Nu7cqERJEil3ptyaOnGqWYGrokgDLmLTpuX6/vt8Gjass4oWragNGy5Y5lYKYN3PDgDw2dp1amd7fnrLpi2qXKayThw7YVbgaijSgJPz9FykqlWza/LkgapSpZHtGegKFeqZVQDA10ieMrnmLpmrYiWLqUyRMho1dJRZgSuhSANOas2a+apUKYtmzx6tunXba9GifSpZsppZBQD4hLoN62r7vu06deKUShcurcMHDpsVuAKKNOBk1q5doIoVM2vu3Alq3LiL5s3bpSJFKphVAIBPix03ttxnu6tKjSqqWq6qRg4ZaVbg7CjSgJNYt26xKlfOKg+PcWrSpKt++mmHChYsa1YBAL7N+qrxrXu32u5OlytejmenXQBFGnBwW7asVPXquTRjxnDVr99Bc+fupEADgD+JGSumps6ZqrIVyqpkwZKaNG6SWYEzokgDDmr37o2qW7eQxo7tpRo1mmvBgj08wgEAdqJ2/dravHuztm/ertpVa7PvtJOiSAMO5siRPWrWrKz69WulUqWqa9mywypRoqpZBQDYC7fEbpq3bJ7SZ0qvgjkLavGCxWYFzoIiDTiIixdPq2PH79W6dSVlz15Qnp5nVL58XbMKALBXrdu31qz5szRxzER1attJr1+/NitwdBRpwM79/PNt291n61Z2CRIk1bZt11SzZguzCgBwBFmzZ7W9FdGqcK7COrDvgO0cjo0iDdipV69eaty43sqXL56CBAmqrVuvqkmTHxUwIP9vCwCOyPrP78EjB6tR80aqUraKpkyYYlbgqPg3MmCH5s2bZCvQN25c1urVJ9Wp0zCFDx/BrAIAHFnl6pW1fvt6rV+zXs0bNNezX5+ZFTgaijRgRzZvXqEKFTJpy5YVGjVqgQYNmql48RKZVQCAs0iUOJGWrFmiKNGiqGjeotq7e69ZgSOhSAN24NSpQ2rWrIzGjOmpRo06yd3dU+nT5zCrAABn1bNfT7Xr1E41KtXQ1ElTTQpHQZEG/NGjR/fVt29L1a1bWFmy5NeKFUdVpEhFswoAcAXlKpWT5xZPrVy6Uu1btjcpHAFFGvAnM2aMUMGCCRU4cBBt3nxJtWu3NisAAFeTOGlirdyw0vLvhMAqUaCEzp05Z1ZgzyjSgB/bvHmlypZNp4MHd8rDY7u6dBmhMGHCmVUAgCuz7upRoUoFlShYQquWrzIp7BVFGvAjly6dVZs2VTRyZFc1bdpN48cvU7Jkac0qAABv1WtUTzPnzlTvbr01augok8IeUaQBP2D9EmGpUqlsxdm6nV2RIhXMCgAA/5UzT06t3rjatptHy8Yt9ebNG7MCe0KRBnyRp+dCS2lOYtsPesOGi2rcuItZAQDg46JFj6b5y+crdOjQKl24tC57XzYrsBcUacAXWB/jaNmyoqZMGaSuXUdqyJDZihkzrlkFAODzDRw+UCXLlFSZomW0fct2k8IeUKQBHzZhQj+VKJFSqVJl1LJlh5UnT3GzAgDA12ncorHti4j1a9aXx0wPk8K/UaQBH7J9+1qVKZNWFy6c1Pr159SoUWezAgDAtytWspiWr1su94nuGtJ/iEnhnyjSwDeyvlSlW7eG6tevlZo2/VEjR85XnDgJzSoAAD4nZeqUWu65XEcOHVHbZm1NCv9CkQa+waJFU1W0aFKFDfud1q07ZzmvZFYAAPAd30X4TvOWzlOAAAFUrXw1PX782KzAr1Gkga9w8eJpNWlSSsuXz9akSSvVseMQBQoUyKwCAOD7RowfoTTp0qhCiQq6cP6CSeGXKNLAF3J3H6ySJVMpU6Y8+umnHUqXLrtZAQDAb3Xu3lnVa1VXxZIVtddrr0nhVyjSwGc6enSvqlfPpSNHvOTpeVr16/9gVgAA8D/1G9dXn4F9VKlUJa1dtdak8AsUaeAzjB7dQw0aFFXZsrU0YcIKxY+fxKwAAOD/ylQoo5+W/KR2Ldpp7uy5JoVvo0gDH3HgwHZVqJBJV69e0Jo1p1S5ckOzAgCAfcmdN7cWrVykMcPHaNLYSSaFb6JIAx8wYkRX29sJv/++peV8nqJGjWlWAACwT6nSpNKCFQu0ZOESDR0w1KTwLRRp4F8OHNih8uUz6tata1qz5qTtcQ4AABxF3HhxtWD5Annt9FKvH3uZFL6BIg38g/VZ6ObNy6lWrVYaNsxDESNGNSsAADiOCBEjaP7y+bpw7oI6te1kUvg0ijRgceLEAVWtmkOXL5/T6tUnuAsNAHB4wYIF00+Lf9KD+w/Uumlrk8InUaTh8qz7QteokUflytXWqFELFCVKDLMCAIDjmzpnql6+eKmm9ZqaBD6FIg2XdeXKeTVoUMz2TPSqVcdVpUojswIAgHMZP3W8ggUPpoa12H3KJ1Gk4ZIWLZqq0qXTKGvW/JoyZY3ixnUzKwAAOKdRE0YpXPhwqlejnknwrSjScCm//vpUHTvW0sKF7vLw2KYGDTqYFQAAnN+wMcMUKXIk1a1e1yT4FhRpuIzt29eqTJm0ihgxihYt2qfUqbOYFQAAXMeQUUMUOUpkyrQPoEjDJYwc+aO6d2+kLl1GqFOnYSYFAMA1Wcu09c50/Zr1TYKvQZGGU/P2PqNatfLpypULWr78iAoWLGtWAABwbUNHD7U9M924TmOT4EtRpOG0li6doXLl0it//tIaPXqhIkSIbFYAAIDViHEjFDRYULVo1MIk+BIUaTilnj2baNasMZo9e4vq1GlrUgAA8G9jJ4/Vi+cv1L5le5Pgc1Gk4VSsbygsVy6D3rx5o2XLDilt2mxmBQAAfMjkmZN1/+f76taxm0nwOSjScBrz5k1U5crZVL16U/XpM1kBA/J/3gAAfK7pP03X+bPnNaD3AJPgU2gacHivX7/Wjz820NKlMy3HQVWq1MCsAACAzxUoUCBN85im3Tt2a8zwMSbFx1Ck4dBOnjykChUyKkiQoLa9oZMlS2tWAADAlwoTNoymzpmqxfMXa+bUmSbFh1Ck4bAWL56mihUzqVq1purVa4JJAQDAt4geI7rcZ7tr5JCRWrZ4mUnxPhRpOKR+/VppzpyxtrvQlSs3NCkAAPAJSZIlkfssd7Vp2kbbNm8zKf6NIg2Hcu2at77/Pq+ePn2sxYv3K1WqTGYFAAD4pMzZMmvKrCm2F7acOHbCpPgnijQcxubNK1SpUhblyVNCQ4bMtj0XDQAAfE+R4kXUs39PNa7bWLdv3TYp/kKRhkOYNGmAevZsqqFD56hBgw4mBQAAvq16reqqWqOqmtRrolevXpkUVhRp2LWXL1+oQ4fvtXfvFi1cuFe5cxczKwAAwK+0at9KqVKnUtP6TU0CK4o07Nb58ydsL1gJGza8Zs7cpBgx4pgVAADg1/oN6afXr16rZ5eeJgFFGnZp/folqlIluypUqKvu3ceaFAAA+KcJUyfo4P6DmjxusklcG0Uadmfy5IHq37+1xo9fpho1mpsUAAD4t6DBgmqc+zhNHDtRq1esNqnrokjDrnTtWl+7dm3Q/Pleyp69oEkBAIC9iJ8gvsZNGaeWjVrq+NHjJnVNFGnYhVu3rqlmzTwKGDCg5szZyvPQAADYsZx5cqr/0P5q2bilnjx+YlLXQ5GGv9u/f5uqVcuhXLmKql8/d5MCAAB7Zt0Wr2iJomrVpJVJXA9FGv5q6dKZqlu3sDp1GqbGjbuYFAAAOIIuPbooWLBg6v1jb5O4Foo0/M3Ysb1sL1qZN2+XihevYlIAAOBIRk8crZ3bdspjpodJXAdFGv6ia9d6Onx4t6VE71Tq1JlNCgAAHE2IkCE0csJIdevYTfu89pnUNVCk4acePvxZdesWsp3PmLFRESNGtZ0DAADHlSpNKo0YP0JtW7TVo4ePTOr8KNLwM2fOHFGNGrmVLl12DRgw3aQAAMAZlK9UXqXLlVb7lu1N4vwo0vAT27atsZToPKpTp61atXLNLyQAAODsOnfvrNevX2to/6EmcW4Uafi6RYumqm3bqhoxYq6qVGlkUgAA4IyGjRmmRfMXac3KNSZxXhRp+KqJE/vL3X2IPDy2KW/ekiYFAADOKlLkSBo6eqg6tO6gq1eumtQ5UaTha/r1a6WdO9fZ3lSYIkUGkwIAAGeXJ38eNW/dXB3bdDSJc6JIw1dYH+W4e/emrURHjRrTpAAAwFU0b9Nc4cOH14BeA0zifCjS8FFPnjxUnToFFTZseI0du0SBAgU2KwAAwNUMHjlYK5au0NpVa03iXCjS8DFXr15Q7doFlDZtVvXuPcmkAADAVYX/LrwGjRykzu06687tOyZ1HhRp+Ijjx/fbSnTZsrXUpk0/kwIAAFeXr0A+1a5fW13adzGJ86BI45vt2rXB9jhH69Z9bPtEAwAA/FP7zu31xx9/aMLoCSZxDhRpfBNPz4Vq1Ki4hg6do3Ll6pgUAADgXQOGDdCIwSN0cP9Bkzg+ijS+mvVFKz17NtXMmZtUoEAZkwIAAPxX/ATx1X9of/3Y4UeTOD6KNL7KzJkjbS9bmTlzozJnzmtSAACAD6tSo4qSp0iuXl17mcSxUaTxxSZM6KfFi6drxowNSp48vUkBAAA+re+QvvJc7akNnhtM4rgo0vgiw4d30bZtq20lOm7cRCYFAAD4PKFDh1bfwX3Vo3MP/fbbbyZ1TBRpfLb+/Vvr+PF9mj59gyJHjm5SAACAL1O4WGHb0bNLT5M4Joo0PkuPHo119epFTZu23vIrybAmBQAA+Dq9B/bWgX0HtGr5KpM4Hoo0Pqlz5zp69Oi+pkxZo8CBg5gUAADg6wUIEEC9+veyffHwl6e/mNSxUKTxUe3aVdfz5881duwSkwAAAPiMvAXyqlTZUurdrbdJHAtFGh/UqlUlBQkSRCNGzDUJAACAz+rRr4f2790vz1WeJnEcFGm8V/Pm5RQmTDgNHjzLJAAAAD4vYMCA6tG3h/r06KMXz1+Y1DFQpPEfTZuWVsSIUdS//1STAAAA+J6CRQoqd97c6tuzr0kcA0Ua72jcuJSiRImpPn0mmwQAAMD3devTTauWrdLunbtNYv8o0vi/xo1LKnr02Orde6JJAAAA/EaYMGH0Y+8f1b9Xf5PYP4o0bJo0KWUp0XHUq9cEkwAAAPitilUqKkaMGBo3cpxJ7BtFGmratIyiRo1JiQYAAP6uS88uGthnoC55XzKJ/aJIu7gWLcorUqSo6t17kkkAAAD8T0K3hOrUrZMG9R1kEvtFkXZhbdpUVtiw4dW37xSTAAAA+L9W7VvpsvdlrV6+2iT2iSLton74oaaCBg2uAQOmmwQAAMB+WO9KD+4/2Ez2iSLtgrp2radXr15qyJDZJgEAALAv1r2l06ZLq+GDhpvE/lCkXUyvXs305MkjjRw53yQAAAD2qcOPHTRyyEjbYx72iCLtQgYObKcbNy5p/PhlJgEAAB+2RR3Dl5a7/W8e4bTixI2jH7r8oGEDh5nEvlCkXcSoUd106tQhS4lebhIAAFzcJXeVDh9DMT541JSHuRT+p02HNjp+9Li2btpqEvtBkXYBkycP1M6d6213ooMFC25SAAAAx9CuczuNGDzCTPaDIu3kPDzGavny2Ro3bqnChYtgUgAA8JeMA3fr1uNbHzhWqmECcyH8TbmK5RQ6TGjNmTHHJPaBIu3Eli2bpSlTBttKdPTosU0KAADgeNp2bKuRQ0fqxYsXJvF/FGkntXHjMvXt29JWohMmTGZSAAAAx5Q5a2blzZdXo4eNNon/o0g7oX37tqpVq4oaO3aJUqfObFIAAADH1rpDa1uRvnXzlkn8F0XayZw5c1QtW1a07ROdI0chkwIAADi+uPHiqmnLphozfIxJ/BdF2oncunXNdif6hx8GqWjRSiYFAAAfdW6iOhYu/c7Wd6ULd5T7Rvt8CYira9m+pVYsXaHTJ0+bxP9QpJ3Eb789U+vWlVSpUkNVrtzQpAAA4IMSJFQp2xOQRdV00sr/79Sxe1FNab+HelbKodITKdP2JkyYMGrZtqXGjhxrEv9DkXYSbdpUVqZMedSoUSeTAACAj8uvhhtuaeWo/Ir/jy3u4hcaopXWMm1xsEsOddxoO4Udada6mQ4fOKx9XvtM4j8o0k6gU6faihgxijp2HGISAADwTQo1VW/zfX2PNVvensCuNG/TXONHjzeT/6BIO7ghQzro8eMHGjhwhkkAAMC3i6+Eyc3paW/xgIf9qVWvlq5dvaZtW7aZxO9RpB3Y9OnDtH//No0cucAkAADAx+2/QJG2U01bNdXEMRPN5Pco0g5q5cqfNGvWGFuJDhkylEkBAICPy5xI8c0p7EuV6lX08MFDbVq/ySR+iyLtgPbu3aLOnetYSvQ8xY79j29HAACAz7RFHa1b3bX50PPPl+VtdlfLWK4gRdqONWnRRJPHTTaT36JIO5hLl86qXbtqGjFintKnz2FSAADwVWaOkvslc/5PGyeq537rSUaVKkKNtmcVqlTQkydP/OWuNEXagfz2269q3766mjTpqqJFK5oUAAB8vYPqmb6jpUz//RT05Y3uKl3Jw3KWUTUXrVRDfvPX7jVq3khTJkwxk9+hSDuQ9u1rKFu2gqpVq7VJAADA18mvIYd3y2NgTWXMfNZSpnP8/62GOYauUtKBHtp9eKWGFDKXw65VrFJRD+4/0LbNfruDB0XaQfTp00IhQoRkr2gAAHxKgvjK33SIVm74+62GtsMyD2n67ktaYP8aNm2oqROnmslvUKQdwNSpQ3T69BENG2b9bSYAAAD8W9WaVXXl8hXt3b3XJL6PIm3nPD0Xavbs0bYSHTBgIJMCAADg3+o3rq9pU6aZyfdRpO3YiRMH1KHD9xo61EOxYvGNYQAAgI+p26iuDu49qJPHT5rEd1Gk7ZT1td/WEt2790RlyZLPpAAAAPgYa5me4T7DTL6LIm2nOnasZdvirkKFeiYBAADAp9RpUEdLFy7Vjes3TOJ7KNJ2qF+/1godOqzatOlnEgAAAHyOsOHC2sr0rGmzTOJ7KNJ2xsNjrI4c8dLgwb7/Nx8AAMAZ1apfy1ak//jjD5P4Doq0Hdm1a71GjuxmKdEzFSRIUJMCAADgS8RPEF+FihbSnOlzTOI7KNJ24ubNq+rcua4GDZopN7cUJgUAAMDX+L7u95ozkyLtErp0qaNatVqpUKFyJgEAAMDXypo9qyJFjqQ1K9eYxOdRpO1A797NFD16XDVq1NkkAAAA+FY1a9fUTzN/MpPPo0j7Mw+PcTpx4qAGDpxuEgAAAPiE8pXL68L5Czpx7IRJfBZF2h/t27dVw4Z10oAB0xUwIH8rAAAAfFr1WtU1d85cM/ks2ps/efTovrp2rW8r0YkTpzQpAAAAfFK176tp/pz5evbsmUl8DkXan/z4Y32VKlVdxYtXMQkAAAB8WrTo0VS8dHHN95hvEp9DkfYHo0d315s34s2FAAAAfqBKjSpa8NMCM/kcirQfW79+sZYvn6N+/dxNAgAAAN+UO29uvX79Wl47vUziMyjSfujaNW9169bIVqIjRoxiUgAAAPi2StUqaeG8hWbyGRRpP9S9eyM1btxFOXIUMgkAAAD8QqWqlbR4/mI9ffLUJN+OIu1HhgzpYLsL3aBBB5MAAADAr0SIGEFlK5TVkgVLTPLtKNJ+YM2a+dq8eYX69JlsEgAAAPi1ClUqaMlCirTDuHbtonr0aGIr0aFDhzUpAAAA/Fq+gvn08MFDHTtyzCTfhiLty6wlumnTH5UlSz6TAAAAwL+Uq1ROyxYvM9O3oUj7ohEjuips2O94LhoAAMBOlKtYTssXLzfTt6FI+5LNm1dq5UoP9e490SQAAADwb26J3ZQwUUKtX7veJF+PIu0LHjy4ZynQTdWr10R9910kkwIAAMAelClfRiuWrjDT16NI+4LevZupfPm6ypu3hEkAAABgL0qXK62Vy1bq2bNnJvk6FGkfNmPGCD158kht2vQzCQAAAOxJ+O/Cq2iJolq1fJVJvg5F2gcdP77P9gXDnj3HmQQAAAD2qFSZUlqzfI2Zvg5F2gf16dNSPXqMU4IEyUwCAAAAe1SiTAl57fLSz/d+NsmXo0j7kEGD2snNLbkqVWpgEgAAANirwIEDq3jp4lq7aq1JvhxF2gds2rRcGzcuV/fuY00CAAAAe1e8ZHF5rvI005ejSH+jp08fqV+/VrYSHSpUGJMCAADA3hUtWVSHDh7S3Tt3TfJlKNLfqF+/1ipevApb3QEAADiYAAEC2Hbv+NqXs1Ckv8GSJTPk7X1GHTsONQkAAAAcSZHiRSjSfu3mzavq37+1unUbbRIAAAA4msLFCmvX9l16/OixST4fRforDRjQRg0adFS6dNlNAgAAAEcTNGhQW5neuG6jST4fRforeHiM09Onj9WsWTeTAAAAwFEVLFJQm9ZvMtPno0h/ocuXz2ngwHbq2nWkSQAAAODI/irSb968McnnoUh/IWuJbtu2v5IlS2sSAAAAOLKIkSIqXYZ02rJxi0k+D0X6C8yePUYvXjxXgwYdTAIAAABnkL9Qfoq0b7E+0jFoUHt17jzcJAAAAHAW+Qrm09ZNW830eSjSn2nw4B/Url1/JUmS2iQAAABwFslSJJMCSGdOnTHJp1GkP8PcuRP022+/2ra7AwAAgHPKmz+vtm3ZZqZPo0h/gvXFK0OGdFDHjsNMAgAAAGeUJ38e7di6w0yfRpH+hKFDO6hhw05KmTKDSQAAAOCMcufNbSvSf/75p0k+jiL9EcuXz9GNG1fUvHkPkwAAAMBZhQgZQjly5dDObTtN8nEU6Q+wvrlw6NCO6tBhiEkAAADg7HLmyaldO3aZ6eMo0h8wbFgnlSxZTVmy5DUJAAAAnF2O3Dm0e8duM30cRfo9tm9fKy+vTerQYbBJAAAA4AoyZMqgm9dv6u6duyb5MIr0ewwf3kU//DBIgQMHMQnwcVevempWjxyqmiSAkvzjqFo1h3rM8rSsmwsBAIDdy5Yzm/bs2mOmD6NI/8vYsb2UKFFKFS1aySTAx1zUrKoBVLhwcQ04X1nNNrzRuXPm2LBWxRJLCwYUt6xbC/VF82MAAIA9sxXp3RTpL3Lu3HG5uw9W+/YDTQJ8jKd6VE2kAUcsp1XW6tz81sod9+2KTdxiqt1nt9yrWAcvS6FOpB6fvzUlAADwJ1mzZ9Ver71m+jCK9D+MGNFV7doNUIwYcUwCfNjVWf20wFqilV1d6xezZe+Tu/4opTPnCyaMFk95AABg31KmTqkH9x/o9q3bJnk/irSxdOlM25Z3deq0NQnwMRe1zdPLnKdU/H/eif63uImV2JzqyGmKNAAADiBLtizav3e/md6PIm3x22+/auTIH9W2bX+TAJ9yQd62u9GfI5ES/nVLGgAAOIRMWTPpwN4DZno/irTFqFHdVKhQOWXOnMckwKd8STn+ktINAADsQaYsliK9jyL9UUeP7tHKlXPVpk0/kwCfw03x//+8xhRt+tiXCK+e13lzqipllducAgAA+2XdT/r82fP65ZdfTPJfLl+kR43qbinRfRU2bHiTAJ/nc79EuGNaG729If3xLyUCAAD7kiFzBh3af8hM/+XSRXrRoql69eqVqlZtbBLgC8Rtrfnujd6W6SNtVNjyf0c7/tmmr17Ujh451HCB5TxdI7lv2K3aH/tSIgAAsCvpM6bX4YOHzfRfLluk//jjN40Z00OtW/cxCfAVck/W/A1r1dXapo9MUcPC/3izYeFElhLt9bZED5787h7TAADA7lmL9JFDH/6ik8sW6dGje6pAgTLKmDGXSYCvcNVTPToVt72UJV2Vtdrwrzcbdq2S3RRs3mwIAICjSZchHUX6386cOaoFCyarZcveJgG+wtXRqlq4uO2lLOm6XtD8PsUU9xNvNqxKmQYAwGFEjRZVoUOHlvdFb5O8yyWL9NixvWwlOmLEKCYBvtRFzer015cIG6lZbTfb2fv880uJRwYMFW8JBwDAcaRJl0bHjhwz07tcrkivX79Et29fU926vMEQ3+DqGnn+9Ts96ZLro48/xy2hYv/fc/qkLvNqQwAAHEbqdKl1/OhxM73L5Yr0uHG91aJFTzMBfuGfe04DAABHkjpNap04esJM73KpIj19+nDFjZvI9iVDwO9c1OX/v5EFAAA4kpSpU+rEcRcv0o8fP9D48X3UokUPkwDf4J+PaxxZqG0ffVzjH68IT1dZedkGDwAAh/FdhO8UMVJEeV/47xcOXaZIjx/fVxUq1FXSpGlMAnwLN9Vu1sice2nANE9z/l9XZ/WT9Z0stjcbDm798eepAQCA3UmRMoVOnTxlpr+5RJE+e/aYli6doWbNuBsNH5R7sjb89WbDBcVVtcfo977ZsPAAL8tgKdG82RAAAIeUPGVynT552kx/c4kiPXFiP0uJ7qbw4SOYBPAZca1vNjx3Qe5dG0nnF/7rzYa1NeF8SnV1v6AN5yjRAAA4qmQpkunMqTNm+pvTF+mdO9fr3LkTql+/g0kAn+am3LUthXr+7r/famg7dluyyaqd243HOQAAcGBJkyfV2dNnzfQ3py/Skyb1V9Om3cwEAAAAfJn4CeLrwYMHevr0qUnecuoivWLFHAUIEEBlytQ0CQAAAPDlkiRNovNn393P1qmL9KRJA9S4cVczAQAAAF8nUZJEunDugpnectoiPWvWKCVMmEy5chUxCQAAAPB1XKZIP3/+hyZPHqTGjbuYBAAAAPh6boncdPHCRTO95ZRF2lqi8+YtoVSpMpkEAAAA+HoJEyX8z9sNna5IP3hwT+7ug9WoUWeTAAAAAN8moVtCXbl8RS9fvjSJExZpa4muWrWx4sVLZBIAAADg21h3gkuQMIEuX7psEicr0jduXNacOWPUsGEnkwAAAAA+I16CeLpy6YqZnKxIT506RA0adFTkyNFNAgAAAPiMePEtRfqyExZpb+/TWrnyJ1uRBgAAAHxa3HhxdfXKVTM5UZGeOnWYpUR3UJgw4UwCAAAA+Jw48eLo2pVrZnKSIn327DFt2bJS9ev/YBIAAADAZ8WOE1vXr103k5MU6enTh9lKdLBgIUwCAAAA+KxYcWLpxrUbZnKCIn369GHt2rVR9eq1NwkAAADg88KECaOgQYPq4YOHttnhi/T06SMsJbqdAgcOYhIAAADAd8SIFUM3b9y0nTt0kbbejd6zZ5Pq1m1nEgAAAMD3xIgZQ7dv3radO3SRnjFjpOrUaatAgQKbBAAAAPA90WNE1+3bDl6krTt17Ny53lakAQAAAL8QLXo03bl1x3busEV61qxRlhLdRkGCBDUJAAAA4LtsRfqOAxdpb+8z2rhxmWrXbmMSAAAAwPdFiRpF9+7es507ZJGePXu0atVqrRAhQpoEAAAA8H0OXaRv3ryipUtnqnbt1iYBAAAA/EbkKJH1872fbecOV6Rnzx6jWrVaKVy4CCYBAAAA/EakyJF0//5927lDFelHj+5rzpyx+v77liYBAAAA/E6gQIEULmw427lDFWlria5cuaGiRYttEgAAAMBvRYj09skIhynSL148l4fHONWs2cIkAAAAgN+LEMHBivRPP41XrlxF5eaW3CQAAACA3wv/XXjpjYMV6Zo1m5sJAAAA8B+2Im3hEEV62bJZihs3kdKly24SAAAAwH+ECx/OekPaMYr03LkTVL16MzMBAAAA/idcOAfZtWP79rV69eqV8ucvZRIAAADA/4QJG8b2afdFet68SapevamZAAAAAP8VJowDFOnTpw/bjooV65sEAAAA8F+hQ4e2fdp1kZ4/f7KqVWtiJgAAAMD/hQodyvZpt0X6wYO7WrjQXVWrNjYJAAAA4P9Chgpp3/tIL1gwRVWqNNZ330U2CQAAAOD/QoQIYfu08yLdyEwAAACAfQgR0o6L9PLls5U4cSolT57OJAAAAIB9CB48uO3TLou09dnoypUbmgkAAACwH8GCBbN92l2RPnRolx49uq9ChcqZBAAAALAfQYMFtX3aXZFetGiqKlVqYCYAAADAvgQNYodF+v79O1q58idewAIAAAC7FSRIENunXRXpxYun20p02LDhTQIAAADYl8CBA9s+7apIL1liLdL1zAQAAADYn4CB3lZouynSGzYsVdSosZQ6dWaTAAAAAPbLbor00qUzVaFCHTMBAOCzAui1OXNOv92+Zs6cz+NzR80ZYD8CWI83FisnbtSRmUNVbc6Gtyt+7MqV86paNbv27r1vEgAAfNbW6gEt/+J7YyYA+HZ2UaRHjOiqFy+eq1OnYSYBAMBnrasWVcEjJ1f5IT1MYn9evHypfYeO6dDREzp64oxOnj2vwIECyy1hXMWLHVOxYkRX9KiRFTliBIUPH1ZhQoVSyJDBdW1qd904d1q5RizX77//qd9++02Pnj7VgwePde/nB7p5966uXrsp76vXdOnydSVP4qbUKZIofZoUypQ2teXPG838FdinpfXyK+/gfQoaPpJJAP/n2SihfRTp3LljaepUT9trwQEA8A1rq8dWmOipVX/2VJPYh2s3bmql5wat3bhZG7dtV7ZMGZUrWxZlzZheGdKmUYxoUc2VH3awazmdOXJA33veMMmHPX/+XIePn9T+Q0e0e98Bbd+9R1EiR1TRAvlVsmhB5c6W1VxpP6YUiqEKc+4qROQoJgH838wiAfz/GWlPz4VKmDAZJRoA4DL+/PO5ps2Zq4LlqihNroI6dOy46tWsqoeXzmjHmmXq362zShUt/Fkl+ksFDRrUVtJbNa6vBdMn6c65Y3IfPVwhQwRXmy49lCBdVnXpM0AnTp81PwLAv714+cL26e9FevnyOSpbtpaZAABwXifPnFOrzt0V0S25PDdtVdN6tfTo8hnNGDdSFUuXVJjQoc2VfitLhnTq1fkHHd62QUtnT9ObN1KxStVVuEI1LVqxylwF4C/W39mxftnQX4v0tWveOnLES2XKfG8SAACcj9f+g6pSr4nyl6mo8GHD6vSe7Vo8y10VSpUwV9iPtKlSaFDPrrpx6rDqVKus8VNnKmX2vJo8c465AsCff/xh+/TXIr1ixRxLia5pJgAAnIv1kY3KdRupesNmyp45o+6cPaY+XTsoTqyY5gr7Vr1iOW1btUSjB/XTmg2blSRTTk2bM8+sAq7r9z9+t/zRn5+RXrnyJ5UuTZEGADiXnx88UPMfuqhIherKmimDrhzbr9ZNGihgQH9/ovKrFMidUyvnztTE4YO0YNkKZS1UQp6btphVwPX89tsz26e//X/0jh2eihAhklKlymQSAAAc34RpM5UoQw6FCBlCl4/uVbtmjc2K48tvKdQbls5Xm6YNbV9MrNOstW7fvWdWAdfx67NfbZ/+VqRXrZqrUqVqmAkAAMd29sJFFa9cQ0tXrdXGZQs0rE8Pf/vyoG+rWr6szh3YpZjRoyt51jya/tN8swK4hl9//cX26S9F+pdfnliK9E+WIl3dJAAAOK4pszyUOmcB5c+dS5uWL1SmdGnMinPr372z1syfrUkzZqtW01b65de3v90NOLsnT58ogH89I7169TwVL15F4cJFMAkAAI6pYesfNHXOXHmtX6kfWjQxqevIniWT9m9aq8gRIypjviK2F7wAzu7J08e2T38r0iVLVjMTAACO59xFb2UtXFKBAgWyFcmMaV3jLvSHDO/XUz07tVexSjVsd6gBZ/bo0UPLH/3hjvTFi6d0/bq38ucvbRIAABzLxm07lLNYGVUtV0aTRgw2Kazb5e3ZsEoTp89S5979TQo4n4ePHtg+/bxIr1mzQCVKVDUTAACOZe7iZSpZ5XtNGTnUtnsF3pUmZQrtWLNcx0+fUd0WbU0KOJf7D+4rQAB/uCO9du0C2/PRAAA4GuuXCtv+2FObVyxSuZLFTIp/Cxc2jNYu8NDLly9VoXYDkwLO4+f7b7d99NMivW/fNoUMGYq9owEADsf6uEL/4aO1fsk85cya2aT4mDmTxipShAgqXb2OSQDncPfeXcsf/fiOtKfnQhUrVtlMAAA4hmke8zRgxFitmT9HaVOmMCk+x+SRQxQ9ahRVqMWdaTiPu3dvW2q0H9+RpkgDABzN4hWr1bFnX634aYZSJk9qUnwJa5kOFSqk7U2IgDO4deeW5Y9+eEd606blSpo0jWLHTmASAADs2669+1WlfmMtmumu9GlSmfTLXNzkrsZFYqjxJhM4ga/5Oc2eOEYPHj6y/aIEcGT3fr6rsGHC2s79rEivW7dYRYtWNBMAAPbtxq3bqtGoueZMGqf8uXKY9Etc1ui2pZWock9NOWAih/dtP6d50yZq47adGj91hkkAx3Pj5nXFihnbdu4nRfr58z+1fv1iFSlCkQYAOAbr1m0Na9Ww7Y38pS5u6qgcEXKozayDJnF8PvFzCh0qlOUXJmPUufcAbd6xy6SAY7l+46rixIprO/eTIr1+/RLlyFFIESJENgkAAPbrhx59FCnCd+r2QxuTfKbLWzS6SAwlGnpWKRfu1toBGc2CA/Phn1PKZEk1bewI26vVHz1++5plwJFcvXZFceLEs537SZHesGGpCheuYCYAAOzX4pVrtGLNOtsLV76Y9zotTO6hC+tXanLB+CpWpJSymyWH5Qs/p8plS9mOZj90MQngOC5fvaT4cePbzn29SD979os2brQW6fImAQDAPj149EitOnfTuKEDFCZMaJN+gYJDtHtkfrmZ0Sn40s9pUM8fdf3mLU2eMcckgGO4dNlb8eMltJ37epHeuHGZChYsq9Ch3367EQAAe/VDt96qWbmCiuTPaxL4ppED+qhdt166ev2GSQD75335ghImSGQ795MiXajQl39RAwAAv7R8zTrtP3xUQ3p1Mwl8W6Z0adSxdXN17t3fJIB9+/P5n7p+45rc/KJIWx/rsO4fbb0jDQCAPevWf7AGdOeZXb/Ws2M7nTp7XsvWeJoEsF/nL5xVYre/X8zkq0V68+YVthIdKlQYkwAAYH8Gjx6nFEkTq0zxIiaBX+rd5Qf1HjzcTID9Onv+jJIkTmYmXy7SmzatUIECZcwEAID9efjosfoPH63uHdqaBH6tXIliihMrlsa586IW2LczZ08pWZLkZvLFIm19CcuWLdYiXdokAADYnyFjJqhW1cq2/Y3hf7q0aWH5ezHeTIB9OnXmpFIkS2kmXyzSW7asVLZsBRUuXASTAABgX35+8EAjJkzWDy2bmAT+JVvmjLZj1ER3kwD25+Tp40qZPLWZfLVIr1L+/KXMBACA/Rk7Zboa1qqueLFjmwT+qU2ThhozZZqZAPvy8NFDPXh4X24JE5vEF4v01q2rlS8fRRoAYJ9ev36tidNnqXmDuiaBf8uWKYOSJnLTrHkLTQLYj2MnjihNqnRmestXivTOneuVKFEKRYsWyyQAANiXqXPmKne2rEqe5O+7Sz7O+4K8zKnT8OWfU+M638t99k9mAuzHkWOHlC51ejO95StFetu21cqbt4SZAACwPzPnLlC9mlXN5PMuXt6i0UM9zCRNGeouz8uXzeSY/OLnZN2C8P6Dh9pz4JBJAPtw+OhBpUub0Uxv+UqR3r59DUUaAGC3Dh49pnv3H6hE4YIm8Slb1DhCDAWwHIky1FSbAya2OtBTxTPksK0FiNBRjvP6Eb//OdWsUkE/LVpqJsA+HDqyXxnTZTLTWz5epE+ePKigQYMrceJUJgEAwL4sXLZK1cr7xnsO8mvyw1t688ljiIqZH2H//P7nVK18OS1YtsJMgP+zvhb8zz//VELzavC/+HiR3r59rfLkKW4mAADsz9LVa1ShdEkzwd4kjB9XKZIk1poNm0wC+K99B/YoS8ZsZvqbjxfpHTs8lTu34/w6GwDgWvYfOqLgwYIrbaoUJoE9Kl2siFat22gmwH/tPbBbWTJnN9PffLRI3717U5cunVW2bAVMAgCAfVm3eauKFcxvJtir4oUKyHPTFjMB/str7y5lz5LTTH/z0SK9c+c65cpV1EwAANifTdt3qlC+3GaCvUqa2E3BgwXT8VOnTQL4jwcP7sv70gVlzpjVJH/z4SK9niINALBbr1+/0u59B5Q3539/ixb2J4/l79P23XvNBPiPnV7blTN7HjO9y0eL9K5d1iJdxEwAANiXJ789Uo4smRQ0SBCTwJ7ltPy98tr/z/32AL+3Y9dW5c6Zz0zv8rEivXfvFrm5JVekSNFMAgCAffnl9yfKnP7dV/zCfmXOkE4HDh81E+A/tu3crLy53v+9Ch8r0rt2bVCOHIXNBACA/fn196dKlzqlmWDvkiZy0/2HD80E+D3rs9G//PqL0qR6/y/AfaxIe3ltpEgDAOzasz9+UeoUycwER5AyWVJzBvi9zds2qEDeD/dbHynSd+7c0M2bV5UhQw6TAABgf357/kxJE7/7ZjLYN/5+wT9t3LJeBfN9+Pt/PlKkvbw2KXv2gmYCAMD+vHnzUsGDBFeQwIFNAkfgFj+eOQP81vPnz7Vhs6cKFfjwjnQ+UqT37NnMS1gAAHbt9ZtXChYkpJngKOLGjmXOAL+1buMa5cmZX+HChjPJf1GkAQAu4Y2tSAczExxFzOjsBgb/4blhtYoVLmGm9/vmIn3q1GGFDRtesWMnMAkAAPbnjV4rSGCKtKOJGjmyOQP81tr1K1W8SCkzvd83F+l9+7Yoa9b3760HAIC9sN6RDhKIF7E4mgjfhTdngN+xfsnQLWESxY0T3yTv981Feu/erZYi/f63vQAAYD/eKFAgvmjoaMKECW3OAL+zau0ylS5e1kwf5gN3pLcpSxaKNADAvr2xFukAgcwERxE82NvHcV6/fm37BPzCitVLVLpkeTN9WIA3FisnbtSRmUNVbc4GE3+eAwe2a8iQjlq0aJ9JAACwT1uqWe8dBVL4AB/+Br6j+l2/6KVeKIwimMR5WH8B9IseKnfX1YqT++Nf/AJ8wpp1KzV20gitW77NJO/nUTTYtxXp8eP76LffnqlDh8EmAQDAPm2oGkSvX4dWqhjO94rw354/1uNfrylGhNQmcS4X7u1ShVn3FSJqRJMAvqd+05rKkim7GtVrZpL3++YiXbt2AdWr11558hQ3CQAA9mlZpbB6Hiy5uq3YYhI4CvdSoSjS8BPPnv2qGG7f6dKp24oYIZJJ389apL/6GelXr17qwIEdypQpt0kAALBvb97wnC2AD1u4dJ5KFS/7yRL9l68u0gcO7FTq1JkVMiTfpgUA2L8Alv+8fv3KTADwXwuWzFWVCtXN9GlfXaQPHdqpjBlzmQkAAHsX0PaacAB4n5Onj+vS5YsqVbycST7tq4v0wYMUaQCA47DekX71+oWZAOBdcxfMUfXK35vp83zDHeldypAhp5kAALBvAQIE1MvXz80EAO/yWDBTNarUNtPn+aoiffiwlxIlSqEwYZxvL04AgLOyFmnuSAP4L4/5M5U5Q1Ylcktiks/zlUV6t9Knz2EmAADsXwBbkeaONID/mvXTdNWuUc9Mn++rivSRI14UaQCAQwmgQHrx6g8zAcBbXvt26f79e1/0JcO/fHWRTpcuu5kAALB/AQIE0nOKNIB/mT57iurWamSmL/PFRfrixdMKFSqMokWLZRIAAOyf9Y7085e/682bNyYB4OquXr+i5auWqJ5fFemjR/cqbdpsZgIAwHEEDRxCN2/fMhMAVzd1xkQ1qNNEoUN93QsGv7hIHztmLdJZzQQAgOMIFjikrt26biYAruy3355piqVIN6rb1CRf7qvuSKdJQ5EGADie4IFD68r1q2YCnNQlT41v31gFiudQqMgB/n9Y55abL5qLMGnaOJUpUV4J4ruZ5Mt9UZH+5ZfHunbNWylTZjAJAACOI3iQ0Lp09YqZAGdzUeOLW0pzluLqOPukyrefpWc/v7Edx+ePkg54aXrVRArV3tNc79omuY9TkwYtzPR1vqhIHzu2X2nSZDYTAACOJUSQMLp42dtMgPOqN3+3mhf4+05rwgKttXm++ULd7OJqufntqauy3o3OmCGz0qfNaJKv80VF+sSJ/UqViiINAHBMIYKG0Tnv82YCnFSmUWpTwJz/U4Gy+uuVI6cvuvYjHuMnj1Lzxm3M9PW+qEgfP35AqVNnMhMAAI4lZJBwOnvhnJkAZ+Om5mvf6Nna1kpokndcOq/T5jS529c/F+zops6cqGRJUihH1lwm+XpfVKRPnjygVKko0gAAxxQkUFCFCROGLxzCNV0+rb22k0Yq9b471i5i9IQRatm0nZm+zWcX6Zs3ryhAgICKESOuSQAAcDypkqbU8TMnzQS4iEujVaDqFMtJdg3ZN1mF36YuZ+LUsUqRLKVyZc9jkm/z2UX65MmDSpny2x7IBgDAv6VNkUrHTh43E+DMLsrbthVeDoXK0kaqNUrL9u1W8wRm2cVY32o6cuwQtW3R0STf7guK9CGlSMG2dwAAx5YuVVodPnHUTIBz8p5s3UM6kVLbtsLzMqlrGz5mkHJmy6MsmXzuDd2fXaRPnz5sKdLpzQQAgGPKmCa9Dhw7ZCbAOSVsvPv/e0g/23dBy2pl197ZbVQuSwAVmOx6O3Y8fvxIw0YPUvvWnU3iMz67SJ86RZEGADi+eLHjKmDAgLp09bJJACeXwE2Fh+/W8X7ZbePebrU1/pLt1GUMGdlfNarUsj0f7ZM+q0hfv35JwYOHUOTI0U0CAIDjypYhi7wO7jMT4BoSNu5m9pH2UsfxrvN2w3Pnz2jy9Anq2PZHk/iczyrSZ84cVbJk6cwEAIBjy5Epm3bv57lRuJpiKlXLnJ45L1d5x+fAYX3UuX03RY0SzSQ+5wuKdFozAQDg2HJlzaEde3ebCXBByRK//6UtTmbDZk8dPX5YHdp0NYnP+qwiffYsRRoA4DzSpUyjh48f6sr1ayYBnIGnWkYOoFDtP/TYxkVdOPP2LGviRG9PnFz/Ib30Y8deZvJ5n1mkjylp0tRmAgDA8eXPmVdbdm01E+BEZvd7/5cJL63R0gPWk0bq1Nj5XxE+fvIoRY4URZXKVzOJz/tkkX706L5+/fWpYsd2hd8AAAC4ikK582vj9i1mApyJlzq2aKwN/yjT3ptHq0CWNtqr7Ko33/nfbHjn7m31Hthd3Tv3MYnv+GSRPnfuuBIn5m40AMC5FM5bUOu2bTQT4AyKqc38URpSq5Gy6qRtz+hQ1kc9LEfq4QulWmt1fN9ujS1gLndivfr/qKYNWipNKt/dLOOTRfr8+RNKkiSVmQAAcA4xokZXiiTJtHH7ZpMAji9hgdZqPnyyNq/9xwtZrIdl3jy8mBK6wOvB165fpT37d6vXj/1N4ns+o0ifVOLEPrt5NQAA9qBkwWJatXGtmQA4gx59O6tP94EKECCASXzPJ4v0hQsnlSgRRRoA4HxKFSmhlevXmAmAo7OW6PTpMqlMifIm8V2fUaRPUaQBAE4pReJkihwxkrZ57TAJAEe1e88OzfSYpv49h5jE9320SN+4cVlhw35nOcKbBAAA51KhRFktXr3MTAAcVeceP2hg72G2Le/8ykeL9MWLp+XmltxMAAA4n0qlymvhyqVmAuCIrLt0uCVwU42qtU3iNz5apL29KdIAAOeWMF4CpU2RirvSgIPatmOzZnpM1eB+I03idz5RpM8oQYKkZgIAwDlVL19FPy1dYCYAjuLVq5f6oWtrDR0wWlEiRzWp3/lokb506awSJkxmJgAAnFPNCtW0Zdc2Xbl+zSQAHEG7zi2VI1suVSpX1SR+65NFmjvSAABnFzhwYNWuXFOzFs4xCQB7N2+Rh7z27dKIQWNN4vc+WKR//vm25R8sQfTdd5FMAgCA86pb9XtNnzfbTADsmfelC2rTsZlGDR6vQIECm9TvfbBIX758XvHiJTYTAADOLV3KNEqeOKk8lswzCQB71eqHJuryQ3flyJbbJP7jg0X6ypXzih+fIg0AcB2NatbTlDnTzQTAHv3Yu6MiRoykNs07mMT/fKRIX+CONADApZQrXkZPnj7R5p1bTWJ/vC9v0OiOLZWjdAEFjBHq78MyN9niba4CnNOCJXO12nOFxg2fYhL/9cEiffXqBcWNm8hMAAC4hmZ1Gmn8jMlmsifeGl06lBLlKKe2HqeVqs0Uvb71zHZc8BiibAf3akrN1ArYcYO5HnAuJ08fV7M29TV+pLvChg1nUv/1kSJ90VKk3cwEAIBraFyrgQ4dP6L9Rw6axP408tisSfkTmklKmL+5dnvUezt4lFOTLW9PAWfx8uVLNWlVTwN7D1dOf34u+p8+WKSvXbuoOHEo0gAA19OqQTONdh9vJjuTcYg65Dfn/xQ/qbKZ0xPePOIB59KoZR1lzphNjeo1M4l9eG+Rvn37usKHj6gQIUKaBAAA19G2UUtt9dqhg8cOm8QeJFTrlc/0emVzy9l7xE+kVOYUcCYDhvbW/fs/++t+0R/y3iJ9/bq3YsdOYCYAAFxLwIAB1b5JKw2fONokDuDyBZ0wp6kSvrdqAw5n7sLZlmOO3MfPMol9+UCRvkSRBgC4tPZNWmvv4f3atc/LJPbNe9NS7bGefOjRD8DB7PTarsYt62nahDmKGiWaSe3Le4v0jRuXFSsWRRoA4No6tWivgWOHmcmebdDQnnttZ43afODRD8CBXLrsrbqNq2vGJA9lyfTX0//25wNF+oqlSMczEwAArqlJrQa6c++OlnmuNIl98uxYTtZddbP1Pq5J3I2Gg3v22zPVblRVrZq2U8VyVU1qn95bpG/epEgDAGD1Y5tO6jdykJnsj7d7AZXwsJzUXKbdDbkXDcdXq0EV5cqRV62atTeJ/fpgkY4ZkyINAED54mUUO0YsjZoyziT2w3tLSyWyPtJhKdEXhhQ2KeC4GrWoo4gRImlAr6EmsW//KdIvX77QvXu3FT16HJMAAODaev3wo3oO66u7P98ziR2wluia021fLrSWaO5Fw9F17NZGjx4/1JRxM01i//5TpG/duqYYMSjRAAD8JW3KNGpau5G6De5lEn92ebxyWEu06mnNh/aVBhxI30E9dPT4Ef00fbFJHMN/ivTt2xRpAAD+rV/nXtq2e4c8t6w3iX/ZoCY5OmqPsmrk7rEqZlLAUQ0fM1jrNq7WvJlLFDRoUJM6hvcU6euKHj22mQAAgFXgQIE08Me+6tyvu0n8x187dDTy2KzW8d9m/2T98mHAjhvMBNi38ZNH6af5MzV/1nLbs9GO5j9F+s6dG4oWjSINAMC/VSxZzvaYR5cBPUzix7a0/P8OHe/d5u7y3/tJA/Zu8rTxmjh1rBbOWaHYsRzzaYgPFOlYZgIAAP80rOcATZ83W1u9dpjEr3hr9Cjrc9EWHuUUMEao/x453t6tBuzdlBkTNGr8UC3yWCW3hIlN6nj+U6Tv3r2hqFFjmgkAAPxT5IiRNaL3YLXt0dEkfmTLKLU9aM4/IVsivn4I+2W9Ez1y7BAtmbtayZIkN6ljek+RvkmRBgDgI2qUr6KMadKrdfcfTOIH8o/V61vPPuvgxSywV9ZnosdOGqGl89YqedKUJnVc7ynStyjSAAB8wtj+w7V+6yYtXLnEJAA+xro7x7RZk7V8vqfD34n+yztF+tWrV3r48J4iR45uEgAA8D4hgofQ+IEj1axza125ftWkAN7Huk/0khULtGLheod+Jvrf3inSP/98mxINAMBnKpArn35o2kaNO7Y0CYB/69itrXZ6bdOqRRscdneOD6FIAwDwDTq3/EHhw4ZTx74/mgTAXxq1qKPLV7y1evEmh9wn+lPeKdL3799RpEjRzAQAAD6H+/AJWrPJUzMXWDd5BvDbb89UoXpJ2/kij5UO98bCz/WvIn3XUqSjmgkAAHyOsKHDaPrIyarfrom8DvJCFLi2S5e9VaRMXiVJnExTxs00qXOiSAMA4AOypM+kmaPdVatlA92+e8ekgGvZ5bVdhUvnUaVyVTWg11CTOq93ivSDB/cUMWIUMwEAgC/xfcVqql25hmq2qGcSwHXMXThHxcrl16A+w9SqWXuTOrd3irR167sIESjSAAB8re5tu8gtXgJ936K+SQDnN2Bob8vRS5tW71LFclVN6vz+VaR/thTpyGYCAABfY/LQcXr661O169XJJIBzevnypeo3ram9+3dr85rdypIpm1lxDRRpAAB8wYLJHtp/5KD6jhxoEsC5nDx9QvmKZVO4cOG1ctEGRY3ieju/vVOkHz26r+++c749/gAA8GvBgwXTYve5WrRqqUZOGWtSwDksXDJXeYpk0ffV6mjEoHEmdT3vFOnHjx8ofPiIZgIAAN8iWpSoWjptvsbPmKyJs9xNCji2br07qf+QXlqxYJ0a1WtuUtf0/yL95s1LBQ4cRMGCBTcJAAD4Vm7xE2r5jIUaOHaopnhMNyngeLwvX1SJCgV17foV7dh4QDmz5zYrrusfRfqFwoePYCYAAOBTUiZNrlWzlqjfyEGaPGeqSQHHMX+xh3LkT6+C+Ypo9tQFChc2nFlxbX8X6dcvFS4cRRoAAN+QJkUqrfZYqkFjh2vstIkmBezbq1ev1KZjMw0fPUiL565W2xYdzAqs3rkjHS7cd2YCAAA+LXWylPKcu0ITZk7R4HHDTQrYp207tyhr3jR6/fq19mw9qpzZeJTj3955RjpsWIo0AAC+KalbYq2fv1JL1ixX1wE9TArYl94Duql2w6rq0PZHjRk2SYEDBzYr+Kd37kiHCRPeTAAAwLfEiRlbGxeu0aHjR9SoQwuTAv7Pa+9O5S6cWZevXtKBHSdUuXw1s4L3+dcdaR4cBwDAL4QLE1br56/S77//ptK1K+qXZ7+aFcB/9OzXRVVqlVOjes00c/JcRYkS1azgQ94p0qFDU6QBAPBLc8ZNV7JESZW7bCGdPHvapIDf8dywWplypdStO7d0aPcp1axax6zgU/4u0nqpMGEo0gAA+LXB3fqpQY06ylmmgJavW2VSwHfdvXdHTVvXV6fu7fRjp95yHzdLUSJzF/pL/F2kX79UqFBhzQQAAPxS8zqNtWDSbDXr1FqDxg4zKeA7JkwZozRZEitypCg6uuesypasYFbwJf5xR/qVQocOYyYAAODXiuQrpD1rtmnTzq2q0byunv32zKwAPmPTlvXKWzSrNm/boHUrtqlP94EKGPD/dRBf6J1npEOGpEgDAOCf4saKo00L1yha5KjKVDSntu/ZaVaAr3f+wlnVbVJD7bu0VNOGrbRk7mqlTZ3erOJr/f1LkDevFCpUaDMAAAD/NLzXIHVr20Vl61TmUQ98tSdPHuvHXh2VNV9aJUuSXMf2nVeVCtXNKr7VP+5Iv1LIkKHMBAAA/Fv1cpV1aOMe7dznpRI1y+nCpYtmBfi0EWMGK1n6eLYtFk8fuqyObX80K/Ap7zwjHSIEd6QBALAnCeLE0xqPpcqTLZdS58+sibOmmBXg/SZPG6+k6eLqxKlj2rBqh0YMHqdoUaObVfikd+5IhwgR0kwAAMCedGzeTrtXbtHClUttL3A5c+GsWQHemjZrsm0nji3bN2rG5Lm2I2Xy1GYVvuEfz0i/pkgDAGDH0qdOq61L1il31pxKlTeTBo4ZalbgyqZMn2Ar0NYXq4wdPlkLZi9Xtsw5zCp80zuPdgQPHsJMAADAXv3QtI3O7DyiwyeOKkPh7FqzaZ1Zgav4/Y/fNWrcUCVJG0dbt2/SuJHuWvzTKuXOmc9cAb9gK9Jv3ryx3ZEOGjS4LQQAAPYtUQI3LXL/SZ1b/qAOfbqqWtPaOnPhnFmFs7p+45p69uuiBMmj6eTpE/pp+mLNm7VUubLnMVfAL9mK9MsXz6UAgWwBAABwHJVKldfpHYeVOllK291pa6l++PiRWYWz2HvAS41a1lGarEn0xx9/aOfGA5o6YbYyps9sroB/eFukXz5XgH88Lg0AABxLl1YddGn/af35/E/Fy5RU/UcP1vPnz80qHNXchbNVpExeNW5RR8mTptCVM3c1uN9IuSVMbK6AfzJF+oUUgCINAIAjs74NcUy/4dq7ZrsuXPJWnIyJNWT8CD23/s4zHMbps6fUrU8nxU8eTYuXLVCzhi1tL1Jp07yDwoYJa66CPXhbpF+9VADLfwAAgONLnjipZo6eIs+5K3TSUspipXNTv5GD9OjJY3MF7I31y4Oz505XifIFVLpSYQUIEECey7dq6bw1KlOygrkK9sZWpF+94o40AADOJl3KNJo9dpo2L/LUtVs3FCNNArXr1UnnvS+YK+Df1m1co4YtaitGwu+0boPlvG4zXTxxU327D1LSxMnMVbBXpki//OsUAAA4mVTJUmjK0HE6t/uYggUNpmwl86pyo5pav22TuQJ+yfrClDYdm9se3Rg+ZrDSp82o80evae7MJSpbirvPjsTWnl/zaAcAAE4vTszYGti1j+6euKr8OfKo2+DeSpM/s4ZPGq27P981V8GnvXr1SmvWrVSLdo0UP0U09RnYQ3FixdHG1Tu1cdUONW3QUpEjRzFXw5G8vSP9+pUUgCINAIArCBw4sJrUbqgDnjs1pv9w2+vG42VKpooNqmvRqqXmKnyLK1cvadqsSapau5wixw2tCVPG2B7V2Lx6l7at26N2rTrJLUEiczUc1ds70pYizR1pAABcT55suTR1+EQ9OHNTxQsU1bS5sxQ+STTVa9tYK9avfvvSNnzS4yePtGrtcnXo2lqZcqVS/uI5tHf/HpUrXdH2zPOapZvUoklbJYjvZn4EnIF5tOOV5Y8UaQAAXFXIECFUr1otrZu3Qie3HVK6lGk1dtpEhU0URVUaf6+ZC+bo1p3b5mrcun1Ty1YtVqfu7ZSrUGa5pYypabMmK3r0mJo8drounbot9/GzVKVCDUX4LoL5UXA2ASy/0nwzusNw3VjTXw2XPzQxAADOZW2V+AodMbvqz3E3CT7Hvfs/a+3mdVq3daM2bt+sBHHjK1+OPMqTLadyZsmhcH6wr7F7qVCqMOu+QkSNaBK/9fTpEx07cURHjh3S4aMHdfDIAf3yy1NlzphVWTPnUHbLfw/ZsuQ0V8NVeBQN9rZIj/phmG56DlTDZQ/MEgAAzoUi7TN279+jrV7btWPPLu3a76XkSZIra/pMypQ2ozKmSacUltmn+VWRtn4p8PyFszp7/ozOnDulU2dO6OSp47a7z2lSpVPaNOltO2xkSJdZSRIlNT8Krur/RXpE+yG6vW4wRRoA4LQo0r5jz6F92nf4gA4cPaTDx4/o+q2bSp08pVImTaHklrKZxC2xEidwU8J4CcyP+HI+WaQfPnqgGzev69r1q7p6/YquXLmkS1e85X3pgi54n1diy1+z9UuByZJY/vqTWX4eyVNZZp//xQEc399Fup2lSK+nSAMAnNfaKvEsRToHRdqXPf3lqY6fOamTZ0/bdgM5d/G8Llz21tUb1xQ/dlzbtm+xosdUjGjRba80jxIpsiJGiKjvwoVX+LDhFCZ0GIUKGVIhgoew7S5i9c8ibaktev78uf788w/b2wB/++2Zfn32q3759RfbIxhPnjzWo8cP9eDhA8txXz//fM+2td+du7d1+84tBQ0aVLFixrb8dcRV3NjxFC9uAiWIn1AJ47vJLWFiBQoUyPa/E/gUj6LB9D9yIuckuTgxHgAAAABJRU5ErkJggg==;" vertex="1" parent="1">
          <mxGeometry x="580" y="340.57" width="210" height="129.43" as="geometry" />
        </mxCell>
        <mxCell id="k9_f0golqo-L15wdCdRA-10" value="SPRINT INICIADA" style="rounded=0;whiteSpace=wrap;html=1;fillColor=#d5e8d4;strokeColor=#82b366;" vertex="1" parent="1">
          <mxGeometry x="320" y="350" width="200" height="30" as="geometry" />
        </mxCell>
        <mxCell id="k9_f0golqo-L15wdCdRA-15" style="edgeStyle=orthogonalEdgeStyle;rounded=0;orthogonalLoop=1;jettySize=auto;html=1;entryX=0;entryY=0.5;entryDx=0;entryDy=0;" edge="1" parent="1" source="k9_f0golqo-L15wdCdRA-11" target="k9_f0golqo-L15wdCdRA-2">
          <mxGeometry relative="1" as="geometry">
            <Array as="points">
              <mxPoint x="90" y="440" />
              <mxPoint x="90" y="140" />
            </Array>
          </mxGeometry>
        </mxCell>
        <mxCell id="k9_f0golqo-L15wdCdRA-11" value="Daily" style="whiteSpace=wrap;html=1;fillColor=#fff2cc;strokeColor=#d6b656;" vertex="1" parent="1">
          <mxGeometry x="120" y="410" width="120" height="60" as="geometry" />
        </mxCell>
        <mxCell id="k9_f0golqo-L15wdCdRA-12" value="&lt;div&gt;&lt;ul&gt;&lt;li&gt;Comentar como esta o andamento das tarefas que estão na Sprint, do time como um todo.&lt;/li&gt;&lt;li&gt;Não é o local para discutir sobre as atividades&lt;/li&gt;&lt;li&gt;15 minutos de Daily&lt;/li&gt;&lt;li&gt;As tarefas ficam no Jira(to-do, progress, bloacked, done)&lt;/li&gt;&lt;/ul&gt;&lt;/div&gt;" style="rounded=0;whiteSpace=wrap;html=1;align=left;" vertex="1" parent="1">
          <mxGeometry x="90" y="480" width="380" height="90" as="geometry" />
        </mxCell>
        <mxCell id="k9_f0golqo-L15wdCdRA-14" style="edgeStyle=orthogonalEdgeStyle;rounded=0;orthogonalLoop=1;jettySize=auto;html=1;entryX=1;entryY=0.5;entryDx=0;entryDy=0;" edge="1" parent="1" source="k9_f0golqo-L15wdCdRA-4" target="k9_f0golqo-L15wdCdRA-11">
          <mxGeometry relative="1" as="geometry">
            <Array as="points">
              <mxPoint x="550" y="440" />
            </Array>
          </mxGeometry>
        </mxCell>
        <mxCell id="k9_f0golqo-L15wdCdRA-16" value="&lt;b&gt;1 SEMANA&lt;/b&gt;" style="text;html=1;align=center;verticalAlign=middle;resizable=0;points=[];autosize=1;strokeColor=none;fillColor=none;" vertex="1" parent="1">
          <mxGeometry x="5" y="290" width="90" height="30" as="geometry" />
        </mxCell>
      </root>
    </mxGraphModel>
  </diagram>
</mxfile>
